<?xml version="1.0" encoding="UTF-8"?>
<svg width="40px" height="40px" viewBox="0 0 40 40" version="1.1" xmlns="http://www.w3.org/2000/svg" xmlns:xlink="http://www.w3.org/1999/xlink">
    <!-- Generator: sketchtool 53.2 (72643) - https://sketchapp.com -->
    <title>2302BD8D-DD5C-4C31-844E-D0012991D7E1</title>
    <desc>Created with sketchtool.</desc>
    <g id="Homepage" stroke="none" stroke-width="1" fill="none" fill-rule="evenodd">
        <g id="Homepage-V2" transform="translate(-987.000000, -1566.000000)" fill="#2A2A2A">
            <path d="M999.049328,1592.25 C997.026513,1592.25 995.296296,1590.55667 994.141127,1587.46667 C993.929713,1587.50333 993.731829,1587.53333 993.542401,1587.55833 C992.989341,1587.63 992.454885,1587.66667 991.957638,1587.66667 C989.19741,1587.66667 987.986427,1586.58333 987.457045,1585.67333 C986.523438,1584.07 987.030833,1581.89333 988.881133,1579.545 C988.99276,1579.40667 989.109461,1579.26333 989.23631,1579.11667 C987.132312,1576.615 986.481156,1574.25 987.457045,1572.575 C988.20799,1571.285 989.772457,1570.60167 991.983008,1570.60167 C992.652769,1570.60167 993.374961,1570.665 994.137745,1570.79167 C995.292914,1567.69667 997.026513,1566 999.049328,1566 C1001.07383,1566 1002.80574,1567.695 1003.96091,1570.79167 C1004.72369,1570.665 1005.44589,1570.60167 1006.11565,1570.60167 C1008.3262,1570.60167 1009.89236,1571.28333 1010.64161,1572.575 C1011.57522,1574.17833 1011.06782,1576.35333 1009.21752,1578.70333 C1009.10928,1578.84167 1008.99258,1578.98167 1008.86911,1579.12667 C1008.99258,1579.27167 1009.10759,1579.41167 1009.21583,1579.55 C1011.06782,1581.89833 1011.57353,1584.075 1010.63992,1585.67833 C1010.11223,1586.58667 1008.90294,1587.67167 1006.14102,1587.67167 C1005.64377,1587.67167 1005.10931,1587.635 1004.55456,1587.56333 C1004.36513,1587.53833 1004.16725,1587.50833 1003.95584,1587.47167 C1002.80236,1590.55667 1001.07214,1592.25 999.049328,1592.25 Z M996.62398,1586.865 C997.422281,1588.85333 998.393097,1589.75 999.049328,1589.75 C999.705558,1589.75 1000.67637,1588.85167 1001.47298,1586.865 C1000.67976,1586.62167 999.867925,1586.325 999.047636,1585.97833 C998.229039,1586.32333 997.417207,1586.62167 996.62398,1586.865 Z M1002.14951,1584.45667 C1003.12033,1584.76167 1004.03702,1584.97 1004.88775,1585.08 C1005.33933,1585.13833 1005.76554,1585.16833 1006.15624,1585.16833 C1007.33678,1585.16833 1008.16891,1584.9 1008.44121,1584.43167 C1008.73211,1583.93167 1008.56298,1582.79 1007.215,1581.08167 C1007.1761,1581.03333 1007.1372,1580.98333 1007.09661,1580.935 C1005.68605,1582.20833 1003.98966,1583.41833 1002.15289,1584.45667 C1002.1512,1584.455 1002.14951,1584.45667 1002.14951,1584.45667 Z M990.885343,1581.08 C989.537364,1582.79 989.368233,1583.93167 989.657448,1584.43 C989.92975,1584.89833 990.763569,1585.16667 991.942416,1585.16667 C992.33311,1585.16667 992.759322,1585.13667 993.210903,1585.07833 C994.059944,1584.96833 994.976638,1584.75833 995.945762,1584.455 C994.095462,1583.41 992.399072,1582.2 991.000353,1580.93333 C990.963144,1580.98333 990.924244,1581.03167 990.885343,1581.08 Z M992.76947,1579.11 C994.075166,1580.28 995.629486,1581.395 997.210867,1582.28667 C997.807901,1582.62333 998.425232,1582.94333 999.051019,1583.23833 C999.678497,1582.94167 1000.29752,1582.62333 1000.89286,1582.28667 C1002.5605,1581.345 1004.08776,1580.26 1005.34948,1579.125 C1004.08438,1577.99 1002.55543,1576.905 1000.88948,1575.96333 C1000.30598,1575.63333 999.688645,1575.31667 999.051019,1575.02167 C998.408319,1575.31833 997.790988,1575.635 997.210867,1575.96167 C995.551685,1576.9 994.027809,1577.98 992.76947,1579.11 Z M1002.17657,1573.80833 C1004.00488,1574.84333 1005.69282,1576.04833 1007.09661,1577.31667 C1007.1372,1577.26667 1007.1761,1577.21833 1007.215,1577.16833 C1008.56298,1575.45833 1008.73211,1574.31667 1008.4429,1573.81833 C1008.08265,1573.19833 1007.0594,1573.06833 1006.26448,1573.06833 C1005.13976,1573.06667 1003.72243,1573.32667 1002.17657,1573.80833 Z M991.835863,1573.06667 C991.042636,1573.06667 990.019389,1573.19667 989.659139,1573.81833 C989.248149,1574.52167 989.752161,1575.805 991.008809,1577.31 C992.410911,1576.04333 994.097153,1574.84167 995.922084,1573.80833 C994.377912,1573.32667 992.958897,1573.06667 991.835863,1573.06667 Z M996.62398,1571.385 C997.418899,1571.62667 998.23073,1571.92333 999.047636,1572.26667 C999.866233,1571.92167 1000.67976,1571.62667 1001.47298,1571.38333 C1000.67637,1569.39667 999.705558,1568.5 999.049328,1568.5 C998.394788,1568.5 997.422281,1569.39833 996.62398,1571.385 Z M999.049328,1581 C998.97491,1581 998.900492,1580.99333 998.827765,1580.98 C997.96012,1580.88 997.268371,1580.19667 997.166892,1579.34333 C997.153362,1579.27167 997.146597,1579.19833 997.146597,1579.125 C997.146597,1579.05167 997.153362,1578.97833 997.166892,1578.90667 C997.268371,1578.05167 997.961811,1577.37 998.827765,1577.27 C998.900492,1577.25667 998.97491,1577.25 999.049328,1577.25 C999.123745,1577.25 999.198163,1577.25667 999.27089,1577.27 C1000.13854,1577.37 1000.83028,1578.05333 1000.93176,1578.90667 C1000.94529,1578.97833 1000.95206,1579.05167 1000.95206,1579.125 C1000.95206,1579.19833 1000.94529,1579.27167 1000.93345,1579.34333 C1000.83197,1580.19833 1000.13854,1580.88 999.272581,1580.98 C999.198163,1580.99333 999.123745,1581 999.049328,1581 Z M995.878109,1606 C995.177904,1606 994.609622,1605.44 994.609622,1604.75 L994.609622,1598.5 C994.609622,1597.81 995.177904,1597.25 995.878109,1597.25 C996.578314,1597.25 997.146597,1597.81 997.146597,1598.5 L997.146597,1604.75 C997.146597,1605.44 996.578314,1606 995.878109,1606 Z M1013.63693,1606 C1012.93673,1606 1012.36844,1605.44 1012.36844,1604.75 L1012.36844,1599.75 C1012.36844,1599.06 1012.93673,1598.5 1013.63693,1598.5 L1016.17391,1598.5 C1018.27283,1598.5 1019.97937,1596.81833 1019.97937,1594.75 L1019.97937,1589.75 C1019.97937,1589.06 1020.54765,1588.5 1021.24785,1588.5 L1024.46136,1588.5 C1024.10956,1587.6 1023.76961,1586.71 1023.43473,1585.83167 L1023.3823,1585.69333 C1019.57345,1575.71167 1016.82168,1568.5 1006.66025,1568.5 C1005.96005,1568.5 1005.39176,1567.94 1005.39176,1567.25 C1005.39176,1566.56 1005.96174,1566 1006.66025,1566 C1018.57727,1566 1021.90409,1574.71833 1025.7569,1584.81167 C1026.10701,1585.73 1026.46218,1586.66 1026.8292,1587.6 C1027.07275,1588.225 1027.05584,1588.905 1026.77846,1589.515 C1026.50277,1590.125 1026.00215,1590.59167 1025.36959,1590.83333 C1025.08038,1590.94167 1024.77594,1590.99833 1024.46474,1591 L1022.51634,1591 L1022.51634,1594.75 C1022.51634,1598.19667 1019.67155,1601 1016.17391,1601 L1014.90542,1601 L1014.90542,1604.75 C1014.90542,1605.44 1014.33714,1606 1013.63693,1606 Z" id="Data-Science"></path>
        </g>
    </g>
</svg>