<?xml version="1.0" encoding="UTF-8"?>
<svg width="40px" height="40px" viewBox="0 0 40 40" version="1.1" xmlns="http://www.w3.org/2000/svg" xmlns:xlink="http://www.w3.org/1999/xlink">
    <!-- Generator: sketchtool 53.2 (72643) - https://sketchapp.com -->
    <title>01B445BC-33E8-466D-8FE9-90048814AA43</title>
    <desc>Created with sketchtool.</desc>
    <g id="Homepage" stroke="none" stroke-width="1" fill="none" fill-rule="evenodd">
        <g id="Homepage-V2" transform="translate(-833.000000, -1566.000000)" fill="#FFFFFF">
            <path d="M861.75,1588.5 C859.681667,1588.5 858,1586.81833 858,1584.75 L858,1569.75 C858,1567.68167 859.681667,1566 861.75,1566 L869.25,1566 C871.318333,1566 873,1567.68167 873,1569.75 L873,1584.75 C873,1586.81833 871.318333,1588.5 869.25,1588.5 L861.75,1588.5 Z M860.5,1584.75 C860.5,1585.44 861.06,1586 861.75,1586 L869.25,1586 C869.94,1586 870.5,1585.44 870.5,1584.75 L870.5,1583.5 L860.5,1583.5 L860.5,1584.75 Z M870.5,1581 L870.5,1573.5 L860.5,1573.5 L860.5,1581 L870.5,1581 Z M870.5,1571 L870.5,1569.75 C870.5,1569.06 869.94,1568.5 869.25,1568.5 L861.75,1568.5 C861.06,1568.5 860.5,1569.06 860.5,1569.75 L860.5,1571 L870.5,1571 Z M836.75,1606 C834.681667,1606 833,1604.31833 833,1602.25 L833,1574.75 C833,1572.68167 834.681667,1571 836.75,1571 L854.25,1571 C854.94,1571 855.5,1571.56 855.5,1572.25 C855.5,1572.94 854.94,1573.5 854.25,1573.5 L836.75,1573.5 C836.06,1573.5 835.5,1574.06 835.5,1574.75 L835.5,1578.5 L854.25,1578.5 C854.94,1578.5 855.5,1579.06 855.5,1579.75 C855.5,1580.44 854.94,1581 854.25,1581 L835.5,1581 L835.5,1602.25 C835.5,1602.94 836.06,1603.5 836.75,1603.5 L866.75,1603.5 C867.44,1603.5 868,1602.94 868,1602.25 L868,1592.25 C868,1591.56 868.56,1591 869.25,1591 C869.94,1591 870.5,1591.56 870.5,1592.25 L870.5,1602.25 C870.5,1604.31833 868.818333,1606 866.75,1606 L836.75,1606 Z M843.768333,1588.5 C842.732799,1588.5 841.893333,1587.66053 841.893333,1586.625 C841.893333,1585.58947 842.732799,1584.75 843.768333,1584.75 C844.803867,1584.75 845.643333,1585.58947 845.643333,1586.625 C845.643333,1587.66053 844.803867,1588.5 843.768333,1588.5 Z M840.5,1601 C839.81,1601 839.25,1600.44 839.25,1599.75 C839.25,1599.06 839.81,1598.5 840.5,1598.5 L842.368333,1598.5 L846.24,1592.69167 C846.283333,1592.62833 846.326667,1592.56833 846.371667,1592.51167 C846.783333,1591.995 847.378333,1591.66833 848.041667,1591.59333 C848.136667,1591.58333 848.23,1591.57833 848.321667,1591.57833 C848.893333,1591.57833 849.433333,1591.76667 849.88,1592.125 L850.905,1592.94167 L853.461667,1589.28167 C853.641667,1589.025 853.865,1588.80667 854.126667,1588.63167 C854.54,1588.35667 855.016667,1588.21333 855.505,1588.21333 C855.671667,1588.21333 855.84,1588.23 856.003333,1588.26333 C856.656667,1588.395 857.22,1588.77333 857.59,1589.32833 L864.038333,1599.05333 C864.055,1599.07667 864.08,1599.12167 864.091667,1599.14667 C864.101667,1599.16167 864.13,1599.21333 864.153333,1599.26833 C864.17,1599.30667 864.181667,1599.34333 864.191667,1599.38167 C864.206667,1599.43 864.216667,1599.465 864.225,1599.50167 C864.236667,1599.55667 864.241667,1599.61167 864.245,1599.66667 C864.248333,1599.69333 864.25,1599.725 864.25,1599.74667 C864.25,1599.835 864.241667,1599.91667 864.225,1599.995 C864.22,1600.02 864.205,1600.075 864.196667,1600.09833 C864.183333,1600.14667 864.17,1600.18833 864.153333,1600.22833 C864.143333,1600.25333 864.113333,1600.31167 864.1,1600.335 C864.083333,1600.36833 864.063333,1600.405 864.04,1600.44 C864.025,1600.46167 863.986667,1600.51167 863.968333,1600.53167 C863.94,1600.56833 863.913333,1600.6 863.885,1600.62833 C863.833333,1600.68 863.776667,1600.72667 863.716667,1600.76833 C863.7,1600.78 863.651667,1600.81 863.648333,1600.81167 C863.585,1600.85167 863.496667,1600.89333 863.396667,1600.92667 C863.386667,1600.93 863.34,1600.945 863.33,1600.94833 C863.206667,1600.985 863.105,1601 863.005,1601 C863.003333,1601 863.001667,1601 863,1601 L840.5,1601 Z M860.671667,1598.5 L855.508333,1590.71333 L852.191667,1595.46667 C851.995,1595.74833 851.686667,1595.93833 851.346667,1595.98667 C851.286667,1595.995 851.226667,1596 851.166667,1596 C850.885,1596 850.608333,1595.90333 850.388333,1595.72833 L848.321667,1594.07833 L848.316667,1594.07833 L845.371667,1598.5 L860.671667,1598.5 Z" id="Design"></path>
        </g>
    </g>
</svg>