<?xml version="1.0" encoding="UTF-8"?>
<svg width="40px" height="35px" viewBox="0 0 40 35" version="1.1" xmlns="http://www.w3.org/2000/svg" xmlns:xlink="http://www.w3.org/1999/xlink">
    <!-- Generator: sketchtool 53.2 (72643) - https://sketchapp.com -->
    <title>C1CA5F4A-FAF5-426A-83E3-5E8FA846F4AB</title>
    <desc>Created with sketchtool.</desc>
    <g id="Homepage" stroke="none" stroke-width="1" fill="none" fill-rule="evenodd">
        <g id="Homepage-V2" transform="translate(-682.000000, -1569.000000)" fill="#FFFFFF">
            <path d="M685.75,1604 C683.681667,1604 682,1602.31833 682,1600.25 L682,1572.94167 C682.006667,1570.77333 683.773333,1569.00667 685.938333,1569 L718.071667,1569 C720.231667,1569.00667 721.993333,1570.76667 722,1572.925 L722,1600.05833 C721.993333,1602.22667 720.226667,1603.99333 718.061667,1604 C718.061667,1604 718.06,1604 718.06,1604 L685.75,1604 Z M684.5,1600.25 C684.5,1600.94 685.06,1601.5 685.75,1601.5 L718.058333,1601.5 C718.85,1601.49833 719.498333,1600.85 719.5,1600.055 L719.5,1579 L684.5,1579 L684.5,1600.25 Z M719.5,1576.5 L719.5,1572.92833 C719.498333,1572.14333 718.855,1571.50167 718.068333,1571.5 L685.941667,1571.5 C685.15,1571.50333 684.501667,1572.15167 684.5,1572.945 L684.5,1576.5 L719.5,1576.5 Z M709.5,1596.5 C709.166667,1596.5 708.851667,1596.37 708.616667,1596.13333 C708.13,1595.64667 708.13,1594.85333 708.616667,1594.365 L712.733333,1590.24833 L708.616667,1586.13167 C708.38,1585.89667 708.25,1585.58167 708.25,1585.24833 C708.25,1584.915 708.38,1584.6 708.616667,1584.365 C708.853333,1584.13 709.166667,1583.99833 709.5,1583.99833 C709.833333,1583.99833 710.148333,1584.12833 710.383333,1584.365 L715.383333,1589.365 C715.87,1589.85167 715.87,1590.645 715.383333,1591.13333 L710.383333,1596.13333 C710.148333,1596.37 709.833333,1596.5 709.5,1596.5 Z M694.5,1596.5 C694.166667,1596.5 693.851667,1596.37 693.616667,1596.13333 L688.616667,1591.13333 C688.13,1590.64667 688.13,1589.85333 688.616667,1589.365 L693.616667,1584.365 C693.851667,1584.13 694.166667,1584 694.5,1584 C694.833333,1584 695.148333,1584.13 695.383333,1584.36667 C695.62,1584.60167 695.75,1584.91667 695.75,1585.25 C695.75,1585.58333 695.62,1585.89833 695.383333,1586.13333 L691.266667,1590.25 L695.383333,1594.36667 C695.87,1594.85333 695.87,1595.64667 695.383333,1596.135 C695.148333,1596.37 694.833333,1596.5 694.5,1596.5 Z M699.5,1596.5 C699.308333,1596.5 699.115,1596.455 698.941667,1596.36833 C698.325,1596.06 698.075,1595.30833 698.381667,1594.69167 L703.381667,1584.69167 C703.595,1584.265 704.023333,1584.00167 704.5,1584.00167 C704.691667,1584.00167 704.885,1584.04667 705.056667,1584.13333 C705.673333,1584.44167 705.925,1585.195 705.616667,1585.81 L700.616667,1595.81 C700.405,1596.235 699.976667,1596.5 699.5,1596.5 Z" id="Development"></path>
        </g>
    </g>
</svg>