<?xml version="1.0" encoding="UTF-8"?>
<svg width="16px" height="16px" viewBox="0 0 16 16" version="1.1" xmlns="http://www.w3.org/2000/svg" xmlns:xlink="http://www.w3.org/1999/xlink">
    <!-- Generator: sketchtool 53.2 (72643) - https://sketchapp.com -->
    <title>7D20A8A4-4EEB-4B42-82B8-D9DC4E9B8EF1</title>
    <desc>Created with sketchtool.</desc>
    <defs>
        <path d="M0,8 C0,3.6 3.6,0 8,0 C12.4,0 16,3.6 16,8 C16,12.4 12.4,16 8,16 C3.6,16 0,12.4 0,8 Z M8,14 C11.3,14 14,11.3 14,8 C14,4.7 11.3,2 8,2 C4.7,2 2,4.7 2,8 C2,11.3 4.7,14 8,14 Z M7.0003,7 L9.0003,7 L9.0003,12 L7.0003,12 L7.0003,7 Z M8,4 C8.552,4 9,4.448 9,5 C9,5.552 8.552,6 8,6 C7.448,6 7,5.552 7,5 C7,4.448 7.448,4 8,4 Z" id="path-1"></path>
    </defs>
    <g id="Solutions" stroke="none" stroke-width="1" fill="none" fill-rule="evenodd">
        <g id="Solutions---Apps-V3" transform="translate(-775.000000, -991.000000)">
            <g id="Group-4" transform="translate(80.000000, 778.000000)">
                <g id="Group-2" transform="translate(356.000000, 193.000000)">
                    <g id="icons/meta/info" transform="translate(339.000000, 20.000000)">
                        <g>
                            <mask id="mask-2" fill="white">
                                <use xlink:href="#path-1"></use>
                            </mask>
                            <use id="icon-color" fill="#7F7F7F" xlink:href="#path-1"></use>
                        </g>
                    </g>
                </g>
            </g>
        </g>
    </g>
</svg>