<svg xmlns="http://www.w3.org/2000/svg" width="26" height="26" viewBox="0 0 26 26">
    <path fill="#FFF" fill-rule="nonzero" d="M16.065 6.827c-.8-.037-1.04-.043-3.065-.043s-2.264.007-3.064.043c-2.057.094-3.015 1.068-3.109 3.11-.036.799-.044 1.038-.044 3.063 0 2.025.008 2.264.044 3.065.094 2.035 1.048 3.015 3.11 3.109.798.036 1.038.044 3.063.044 2.026 0 2.265-.007 3.065-.044 2.057-.093 3.014-1.07 3.109-3.11.036-.799.043-1.04.043-3.064 0-2.025-.007-2.264-.043-3.064-.095-2.04-1.054-3.015-3.11-3.109zM13 16.895a3.895 3.895 0 1 1 0-7.79 3.895 3.895 0 0 1 0 7.79zm4.048-7.032a.91.91 0 1 1 0-1.82.91.91 0 0 1 0 1.82zM15.528 13a2.527 2.527 0 1 1-5.055 0 2.527 2.527 0 0 1 5.054 0zM13 0C5.82 0 0 5.82 0 13s5.82 13 13 13 13-5.82 13-13S20.18 0 13 0zm7.538 16.127c-.125 2.757-1.66 4.284-4.41 4.41-.81.038-1.069.046-3.128.046-2.06 0-2.317-.008-3.127-.045-2.755-.127-4.284-1.657-4.41-4.411-.038-.809-.046-1.068-.046-3.127 0-2.06.008-2.317.045-3.127.127-2.755 1.657-4.284 4.411-4.41.81-.038 1.068-.046 3.127-.046 2.06 0 2.318.008 3.128.046 2.757.127 4.286 1.66 4.41 4.41.037.81.045 1.068.045 3.127 0 2.06-.008 2.318-.045 3.127z"/>
</svg>
