<?xml version="1.0" encoding="UTF-8"?>
<svg width="40px" height="40px" viewBox="0 0 40 40" version="1.1" xmlns="http://www.w3.org/2000/svg" xmlns:xlink="http://www.w3.org/1999/xlink">
    <!-- Generator: sketchtool 53.2 (72643) - https://sketchapp.com -->
    <title>519074F9-80F6-4791-8E0D-9C41B65E2B73</title>
    <desc>Created with sketchtool.</desc>
    <g id="Homepage" stroke="none" stroke-width="1" fill="none" fill-rule="evenodd">
        <g id="Homepage-V2" transform="translate(-1144.000000, -1566.000000)" fill="#2A2A2A">
            <path d="M1182.75,1606 C1182.44667,1606 1182.155,1605.89 1181.92667,1605.69 L1172.675,1597.595 C1169.82333,1599.79167 1166.31167,1600.99667 1162.72833,1600.99667 C1160.84,1600.99667 1158.975,1600.66667 1157.18833,1600.01667 C1153.47,1598.66333 1150.37833,1596.00667 1148.48167,1592.53333 C1148.32167,1592.24 1148.285,1591.90167 1148.38,1591.58167 C1148.475,1591.26167 1148.68667,1590.99667 1148.98,1590.83667 C1149.16167,1590.73667 1149.37,1590.68333 1149.57833,1590.68333 C1150.03667,1590.68333 1150.45667,1590.93333 1150.67667,1591.335 C1152.28167,1594.27333 1154.89667,1596.52333 1158.04333,1597.66833 C1159.555,1598.21833 1161.13167,1598.49667 1162.72833,1598.49667 C1168.49667,1598.49667 1173.695,1594.86 1175.66667,1589.44833 C1178.25833,1582.32333 1174.57167,1574.41833 1167.44667,1571.825 C1165.97,1571.285 1164.35167,1571 1162.76667,1571 C1162.38,1571 1161.99,1571.01667 1161.60833,1571.05 C1161.57167,1571.05333 1161.535,1571.055 1161.5,1571.055 C1160.84667,1571.055 1160.31167,1570.56333 1160.255,1569.91333 C1160.225,1569.58 1160.32833,1569.25667 1160.54333,1569 C1160.75833,1568.745 1161.06,1568.58833 1161.39333,1568.55833 C1161.845,1568.52 1162.30833,1568.5 1162.76667,1568.5 C1164.64167,1568.5 1166.55667,1568.83667 1168.30333,1569.475 C1172.375,1570.95667 1175.62833,1573.94167 1177.465,1577.87833 C1179.30167,1581.81667 1179.49667,1586.22833 1178.015,1590.3 C1177.25,1592.405 1176.08333,1594.28833 1174.54333,1595.90667 L1183.57333,1603.80833 C1183.825,1604.02833 1183.975,1604.33333 1183.99833,1604.665 C1184.02,1604.99833 1183.91167,1605.32 1183.69167,1605.57167 C1183.45333,1605.84333 1183.11,1606 1182.75,1606 Z M1161.5,1588.5 C1161.16667,1588.5 1160.85167,1588.37 1160.61667,1588.13333 L1158.76667,1586.285 C1157.585,1587.68333 1155.85167,1588.5 1154,1588.5 C1152.14833,1588.5 1150.415,1587.68333 1149.23333,1586.285 L1147.38333,1588.13333 C1147.14833,1588.37 1146.83333,1588.5 1146.5,1588.5 C1146.16667,1588.5 1145.85167,1588.37 1145.61667,1588.13333 C1145.13,1587.64667 1145.13,1586.85333 1145.61667,1586.365 L1148,1583.98167 C1147.83333,1583.41333 1147.75,1582.83167 1147.75,1582.25 L1145.25,1582.25 C1144.56,1582.25 1144,1581.68833 1144,1581 C1144,1580.31167 1144.56,1579.75 1145.25,1579.75 L1147.75,1579.75 L1147.75,1578.045 L1144.72167,1576.63167 C1144.09667,1576.34167 1143.82667,1575.595 1144.11667,1574.97167 C1144.32167,1574.53167 1144.76667,1574.25 1145.25,1574.25 C1145.43333,1574.25 1145.61167,1574.29 1145.77833,1574.36667 L1147.79,1575.305 C1148.00833,1573.37833 1149.12667,1571.64333 1150.79833,1570.64 L1149.38167,1567.80833 C1149.07333,1567.19167 1149.325,1566.44 1149.94,1566.13167 C1150.11333,1566.045 1150.30667,1566 1150.49833,1566 C1150.975,1566 1151.40333,1566.265 1151.61667,1566.69 L1153.175,1569.805 C1153.45,1569.76833 1153.72667,1569.75 1154,1569.75 C1154.27333,1569.75 1154.55,1569.76833 1154.825,1569.80667 L1156.38167,1566.69167 C1156.595,1566.265 1157.02333,1566 1157.5,1566 C1157.69333,1566 1157.88667,1566.045 1158.05833,1566.13167 C1158.675,1566.44 1158.925,1567.19167 1158.61667,1567.80833 L1157.20167,1570.64167 C1158.87333,1571.64333 1159.99167,1573.38 1160.21,1575.305 L1162.22,1574.36667 C1162.38833,1574.28833 1162.565,1574.25 1162.74833,1574.25 C1163.23167,1574.25 1163.67667,1574.53333 1163.88167,1574.97 C1164.17333,1575.595 1163.90167,1576.34 1163.27833,1576.63167 L1160.25,1578.045 L1160.25,1579.75 L1162.75,1579.75 C1163.44,1579.75 1164,1580.31 1164,1581 C1164,1581.69 1163.44,1582.25 1162.75,1582.25 L1160.25,1582.25 C1160.25,1582.83167 1160.16667,1583.41333 1160,1583.98167 L1162.385,1586.36667 C1162.87167,1586.85333 1162.87167,1587.64667 1162.385,1588.135 C1162.14833,1588.37 1161.83333,1588.5 1161.5,1588.5 Z M1150.25,1582.25 C1150.25,1584.31667 1151.93167,1586 1154,1586 C1156.06833,1586 1157.75,1584.31833 1157.75,1582.25 L1157.75,1578.5 L1150.25,1578.5 L1150.25,1582.25 Z M1157.75,1576 C1157.75,1573.93167 1156.06833,1572.25 1154,1572.25 C1151.93167,1572.25 1150.25,1573.93167 1150.25,1576 L1157.75,1576 Z" id="QA"></path>
        </g>
    </g>
</svg>