<svg xmlns="http://www.w3.org/2000/svg" width="26" height="26" viewBox="0 0 26 26">
    <path fill="#FFF" fill-rule="nonzero" d="M13 0C5.82 0 0 5.82 0 13s5.82 13 13 13 13-5.82 13-13S20.18 0 13 0zm6.572 10.449c.198 4.376-3.066 9.256-8.845 9.256a8.804 8.804 0 0 1-4.769-1.399 6.26 6.26 0 0 0 4.607-1.288 3.119 3.119 0 0 1-2.908-2.161c.489.093.97.066 1.406-.053-1.496-.301-2.53-1.65-2.496-3.091.42.233.9.373 1.41.389a3.116 3.116 0 0 1-.963-4.155 8.832 8.832 0 0 0 6.413 3.251A3.115 3.115 0 0 1 18.73 8.36a6.207 6.207 0 0 0 1.976-.755 3.124 3.124 0 0 1-1.368 1.721 6.207 6.207 0 0 0 1.786-.49 6.246 6.246 0 0 1-1.552 1.613z"/>
</svg>
