<?xml version="1.0" encoding="UTF-8"?>
<svg width="30px" height="30px" viewBox="0 0 30 30" version="1.1" xmlns="http://www.w3.org/2000/svg" xmlns:xlink="http://www.w3.org/1999/xlink">
    <!-- Generator: sketchtool 53.2 (72643) - https://sketchapp.com -->
    <title>F104FDDF-87E2-4F80-A3D3-F56EEC637864</title>
    <desc>Created with sketchtool.</desc>
    <g id="Solutions" stroke="none" stroke-width="1" fill="none" fill-rule="evenodd">
        <g id="Solutions---Landing-V3" transform="translate(-553.000000, -4232.000000)" fill="#2C95D7">
            <g id="Group-4-Copy-4" transform="translate(513.000000, 3878.000000)">
                <path d="M61.5625,370.875 C60.01125,370.875 58.75,369.61375 58.75,368.0625 L58.75,356.8125 C58.75,355.26125 60.01125,354 61.5625,354 L67.1875,354 C68.73875,354 70,355.26125 70,356.8125 L70,368.0625 C70,369.61375 68.73875,370.875 67.1875,370.875 L61.5625,370.875 Z M60.625,368.0625 C60.625,368.58 61.045,369 61.5625,369 L67.1875,369 C67.705,369 68.125,368.58 68.125,368.0625 L68.125,367.125 L60.625,367.125 L60.625,368.0625 Z M68.125,365.25 L68.125,359.625 L60.625,359.625 L60.625,365.25 L68.125,365.25 Z M68.125,357.75 L68.125,356.8125 C68.125,356.295 67.705,355.875 67.1875,355.875 L61.5625,355.875 C61.045,355.875 60.625,356.295 60.625,356.8125 L60.625,357.75 L68.125,357.75 Z M42.8125,384 C41.26125,384 40,382.73875 40,381.1875 L40,360.5625 C40,359.01125 41.26125,357.75 42.8125,357.75 L55.9375,357.75 C56.455,357.75 56.875,358.17 56.875,358.6875 C56.875,359.205 56.455,359.625 55.9375,359.625 L42.8125,359.625 C42.295,359.625 41.875,360.045 41.875,360.5625 L41.875,363.375 L55.9375,363.375 C56.455,363.375 56.875,363.795 56.875,364.3125 C56.875,364.83 56.455,365.25 55.9375,365.25 L41.875,365.25 L41.875,381.1875 C41.875,381.705 42.295,382.125 42.8125,382.125 L65.3125,382.125 C65.83,382.125 66.25,381.705 66.25,381.1875 L66.25,373.6875 C66.25,373.17 66.67,372.75 67.1875,372.75 C67.705,372.75 68.125,373.17 68.125,373.6875 L68.125,381.1875 C68.125,382.73875 66.86375,384 65.3125,384 L42.8125,384 Z M48.07625,370.875 C47.2995996,370.875 46.67,370.2454 46.67,369.46875 C46.67,368.6921 47.2995996,368.0625 48.07625,368.0625 C48.8529004,368.0625 49.4825,368.6921 49.4825,369.46875 C49.4825,370.2454 48.8529004,370.875 48.07625,370.875 Z M45.625,380.25 C45.1075,380.25 44.6875,379.83 44.6875,379.3125 C44.6875,378.795 45.1075,378.375 45.625,378.375 L47.02625,378.375 L49.93,374.01875 C49.9625,373.97125 49.995,373.92625 50.02875,373.88375 C50.3375,373.49625 50.78375,373.25125 51.28125,373.195 C51.3525,373.1875 51.4225,373.18375 51.49125,373.18375 C51.92,373.18375 52.325,373.325 52.66,373.59375 L53.42875,374.20625 L55.34625,371.46125 C55.48125,371.26875 55.64875,371.105 55.845,370.97375 C56.155,370.7675 56.5125,370.66 56.87875,370.66 C57.00375,370.66 57.13,370.6725 57.2525,370.6975 C57.7425,370.79625 58.165,371.08 58.4425,371.49625 L63.27875,378.79 C63.29125,378.8075 63.31,378.84125 63.31875,378.86 C63.32625,378.87125 63.3475,378.91 63.365,378.95125 C63.3775,378.98 63.38625,379.0075 63.39375,379.03625 C63.405,379.0725 63.4125,379.09875 63.41875,379.12625 C63.4275,379.1675 63.43125,379.20875 63.43375,379.25 C63.43625,379.27 63.4375,379.29375 63.4375,379.31 C63.4375,379.37625 63.43125,379.4375 63.41875,379.49625 C63.415,379.515 63.40375,379.55625 63.3975,379.57375 C63.3875,379.61 63.3775,379.64125 63.365,379.67125 C63.3575,379.69 63.335,379.73375 63.325,379.75125 C63.3125,379.77625 63.2975,379.80375 63.28,379.83 C63.26875,379.84625 63.24,379.88375 63.22625,379.89875 C63.205,379.92625 63.185,379.95 63.16375,379.97125 C63.125,380.01 63.0825,380.045 63.0375,380.07625 C63.025,380.085 62.98875,380.1075 62.98625,380.10875 C62.93875,380.13875 62.8725,380.17 62.7975,380.195 C62.79,380.1975 62.755,380.20875 62.7475,380.21125 C62.655,380.23875 62.57875,380.25 62.50375,380.25 C62.5025,380.25 62.50125,380.25 62.5,380.25 L45.625,380.25 Z M60.75375,378.375 L56.88125,372.535 L54.39375,376.1 C54.24625,376.31125 54.015,376.45375 53.76,376.49 C53.715,376.49625 53.67,376.5 53.625,376.5 C53.41375,376.5 53.20625,376.4275 53.04125,376.29625 L51.49125,375.05875 L51.4875,375.05875 L49.27875,378.375 L60.75375,378.375 Z" id="Website-Design"></path>
            </g>
        </g>
    </g>
</svg>